<?xml version="1.0" encoding="UTF-8" standalone="no"?>
<!-- Created with Inkscape (http://www.inkscape.org/) -->

<svg
   xmlns:dc="http://purl.org/dc/elements/1.1/"
   xmlns:cc="http://creativecommons.org/ns#"
   xmlns:rdf="http://www.w3.org/1999/02/22-rdf-syntax-ns#"
   xmlns:svg="http://www.w3.org/2000/svg"
   xmlns="http://www.w3.org/2000/svg"
   xmlns:sodipodi="http://sodipodi.sourceforge.net/DTD/sodipodi-0.dtd"
   xmlns:inkscape="http://www.inkscape.org/namespaces/inkscape"
   width="744.09448819"
   height="1052.3622047"
   id="svg2"
   version="1.1"
   inkscape:version="0.47pre4 r22446"
   sodipodi:docname="buttons.svg">
  <defs
     id="defs4">
    <inkscape:perspective
       sodipodi:type="inkscape:persp3d"
       inkscape:vp_x="0 : 526.18109 : 1"
       inkscape:vp_y="0 : 1000 : 0"
       inkscape:vp_z="744.09448 : 526.18109 : 1"
       inkscape:persp3d-origin="372.04724 : 350.78739 : 1"
       id="perspective10" />
    <filter
       inkscape:collect="always"
       id="filter3596"
       x="-0.12"
       width="1.24"
       y="-0.12"
       height="1.24">
      <feGaussianBlur
         inkscape:collect="always"
         stdDeviation="8"
         id="feGaussianBlur3598" />
    </filter>
    <inkscape:perspective
       id="perspective2849"
       inkscape:persp3d-origin="0.5 : 0.33333333 : 1"
       inkscape:vp_z="1 : 0.5 : 1"
       inkscape:vp_y="0 : 1000 : 0"
       inkscape:vp_x="0 : 0.5 : 1"
       sodipodi:type="inkscape:persp3d" />
    <clipPath
       clipPathUnits="userSpaceOnUse"
       id="clipPath2867">
      <path
         style="fill:#000000;fill-opacity:0.96581199;stroke:none"
         d="m 215,477.375 0,60 55,0 0,-60 -55,0 z m 20.4375,16.90625 7.0625,7.0625 7.0625,-7.0625 3.53125,3.53125 -7.0625,7.0625 7.0625,7.0625 -3.53125,3.53125 -7.0625,-7.0625 -7.0625,7.0625 -3.53125,-3.53125 7.0625,-7.0625 -7.0625,-7.0625 3.53125,-3.53125 z"
         id="path2869" />
    </clipPath>
  </defs>
  <sodipodi:namedview
     id="base"
     pagecolor="#ffffff"
     bordercolor="#666666"
     borderopacity="1.0"
     inkscape:pageopacity="0.0"
     inkscape:pageshadow="2"
     inkscape:zoom="4"
     inkscape:cx="262.36365"
     inkscape:cy="527.21555"
     inkscape:document-units="px"
     inkscape:current-layer="layer1"
     showgrid="true"
     inkscape:snap-nodes="false"
     inkscape:snap-bbox="true"
     inkscape:window-width="1024"
     inkscape:window-height="695"
     inkscape:window-x="0"
     inkscape:window-y="25"
     inkscape:window-maximized="1">
    <inkscape:grid
       type="xygrid"
       id="grid2816" />
  </sodipodi:namedview>
  <metadata
     id="metadata7">
    <rdf:RDF>
      <cc:Work
         rdf:about="">
        <dc:format>image/svg+xml</dc:format>
        <dc:type
           rdf:resource="http://purl.org/dc/dcmitype/StillImage" />
        <dc:title></dc:title>
      </cc:Work>
    </rdf:RDF>
  </metadata>
  <g
     inkscape:label="Layer 1"
     inkscape:groupmode="layer"
     id="layer1">
    <path
       style="fill:#ffff00;fill-opacity:1;stroke:none"
       d="m 235,552.36218 0,60 55,0 0,-60 -55,0 z m 18.3125,14.75 9.1875,9.1875 9.1875,-9.1875 3.53125,3.53125 -9.1875,9.21875 9.1875,9.1875 -3.53125,3.53125 -9.1875,-9.1875 -9.1875,9.1875 -3.53125,-3.53125 9.1875,-9.1875 -9.1875,-9.21875 3.53125,-3.53125 z"
       id="path2829" />
    <g
       id="g3617"
       mask="none"
       inkscape:export-filename="/home/jared/www/jfcom/feedback/media/images/close_med.png"
       inkscape:export-xdpi="51.612858"
       inkscape:export-ydpi="51.612858"
       clip-path="url(#clipPath2867)">
      <path
         sodipodi:type="arc"
         style="fill:#000000;fill-opacity:1;stroke:none;filter:url(#filter3596)"
         id="path2822"
         sodipodi:cx="280"
         sodipodi:cy="532.36218"
         sodipodi:rx="80"
         sodipodi:ry="80"
         d="m 360,532.36218 a 80,80 0 1 1 -160,0 80,80 0 1 1 160,0 z"
         transform="matrix(0.28125003,0,0,0.28125,163.74999,358.13532)" />
      <path
         transform="matrix(0.28125003,0,0,0.28125,163.74999,355.13532)"
         d="m 360,532.36218 a 80,80 0 1 1 -160,0 80,80 0 1 1 160,0 z"
         sodipodi:ry="80"
         sodipodi:rx="80"
         sodipodi:cy="532.36218"
         sodipodi:cx="280"
         id="path2818"
         style="fill:#ffffff;fill-opacity:1;stroke:none"
         sodipodi:type="arc" />
    </g>
    <text
       xml:space="preserve"
       style="font-size:16px;font-style:normal;font-variant:normal;font-weight:bold;font-stretch:normal;text-align:center;line-height:125%;writing-mode:lr-tb;text-anchor:middle;fill:#000000;fill-opacity:1;stroke:none;font-family:Lohit Gujarati;-inkscape-font-specification:Lohit Gujarati Bold"
       x="-503.9325"
       y="342.15625"
       id="text2830"
       sodipodi:linespacing="125%"
       inkscape:export-filename="/home/jared/www/jfcom/media/images/feedback_wr_sm.png"
       inkscape:export-xdpi="90"
       inkscape:export-ydpi="90"
       transform="matrix(0,-1,1,0,0,0)"><tspan
         sodipodi:role="line"
         id="tspan2832"
         x="-503.9325"
         y="342.15625">feedback</tspan></text>
    <text
       inkscape:export-ydpi="90"
       inkscape:export-xdpi="90"
       inkscape:export-filename="/home/jared/www/jfcom/feedback/media/images/big_white.png"
       sodipodi:linespacing="125%"
       id="text3606"
       y="400.59656"
       x="517.64453"
       style="font-size:28px;font-style:normal;font-variant:normal;font-weight:bold;font-stretch:normal;text-align:center;line-height:125%;writing-mode:lr;text-anchor:middle;fill:#000000;fill-opacity:1;stroke:none;font-family:Lohit Gujarati;-inkscape-font-specification:Lohit Gujarati Bold"
       xml:space="preserve"><tspan
         y="400.59656"
         x="517.64453"
         id="tspan3608"
         sodipodi:role="line">feedback</tspan></text>
    <rect
       style="fill:#000000;fill-opacity:0.96581199;stroke:none"
       id="rect2839-5"
       width="55"
       height="60"
       x="294.25"
       y="534.86218" />
    <path
       style="fill:#ffffff;fill-opacity:0.96581199;stroke:none"
       d="m 311.1434,555.30393 7.07107,7.07107 -7.07107,7.07107 3.53553,3.53553 7.07107,-7.07107 7.07107,7.07107 3.53553,-3.53553 -7.07107,-7.07107 7.07107,-7.07107 -3.53553,-3.53553 -7.07107,7.07107 -7.07107,-7.07107 -3.53553,3.53553 z"
       id="rect2832-3" />
  </g>
</svg>
